<?xml version="1.0" encoding="UTF-8" standalone="no"?>
<svg
   xmlns:dc="http://purl.org/dc/elements/1.1/"
   xmlns:cc="http://creativecommons.org/ns#"
   xmlns:rdf="http://www.w3.org/1999/02/22-rdf-syntax-ns#"
   xmlns:svg="http://www.w3.org/2000/svg"
   xmlns="http://www.w3.org/2000/svg"
   xmlns:xlink="http://www.w3.org/1999/xlink"
   xmlns:sodipodi="http://sodipodi.sourceforge.net/DTD/sodipodi-0.dtd"
   xmlns:inkscape="http://www.inkscape.org/namespaces/inkscape"
   version="1.1"
   inkscape:output_extension="org.inkscape.output.svg.inkscape"
   sodipodi:docname="logo.svg"
   inkscape:version="1.0beta2 (unknown)"
   sodipodi:version="0.32"
   id="svg3077"
   height="48.000000px"
   width="48.000000px">
  <defs
     id="defs3">
    <inkscape:perspective
       id="perspective91"
       inkscape:persp3d-origin="24 : 16 : 1"
       inkscape:vp_z="48 : 24 : 1"
       inkscape:vp_y="0 : 1000 : 0"
       inkscape:vp_x="0 : 24 : 1"
       sodipodi:type="inkscape:persp3d" />
    <linearGradient
       y2="14.2033"
       x2="35.3912"
       y1="32.4165"
       x1="12.2744"
       gradientUnits="userSpaceOnUse"
       id="linearGradient3435">
      <stop
         id="stop3437"
         style="stop-color:#ffffc8;stop-opacity:1.0000000;"
         offset="0.0000000" />
      <stop
         id="stop3439"
         style="stop-color:#9a91ef;stop-opacity:0.0000000;"
         offset="1.0000000" />
    </linearGradient>
    <linearGradient
       id="linearGradient3421"
       gradientUnits="userSpaceOnUse"
       x1="12.2744"
       y1="32.4165"
       x2="35.3912"
       y2="14.2033">
      <stop
         offset="0.0000000"
         style="stop-color:#ffffff;stop-opacity:1.0000000;"
         id="stop3423" />
      <stop
         offset="1.0000000"
         style="stop-color:#b8c04c;stop-opacity:0.0000000;"
         id="stop3427" />
    </linearGradient>
    <linearGradient
       y2="14.2033"
       x2="35.3912"
       y1="32.4165"
       x1="12.2744"
       gradientUnits="userSpaceOnUse"
       id="linearGradient3406">
      <stop
         id="stop3408"
         style="stop-color:#b307ff;stop-opacity:0.82178217;"
         offset="0.0000000" />
      <stop
         id="stop3410"
         style="stop-color:#f0ff8b;stop-opacity:0.64356434;"
         offset="1.0000000" />
      <stop
         id="stop3412"
         style="stop-color:#ffffff;stop-opacity:0.0000000;"
         offset="1.0000000" />
    </linearGradient>
    <linearGradient
       id="linearGradient3394"
       gradientUnits="userSpaceOnUse"
       x1="12.2744"
       y1="32.4165"
       x2="35.3912"
       y2="14.2033">
      <stop
         offset="0.0000000"
         style="stop-color:#fff307;stop-opacity:1.0000000;"
         id="stop3396" />
      <stop
         offset="0.50000000"
         style="stop-color:#166eff;stop-opacity:1.0000000;"
         id="stop3398" />
      <stop
         offset="1.0000000"
         style="stop-color:#ffffff;stop-opacity:0.0000000;"
         id="stop3400" />
    </linearGradient>
    <linearGradient
       id="linearGradient6036"
       inkscape:collect="always">
      <stop
         id="stop6038"
         offset="0"
         style="stop-color:#ffffff;stop-opacity:1;" />
      <stop
         id="stop6040"
         offset="1"
         style="stop-color:#ffffff;stop-opacity:0;" />
    </linearGradient>
    <linearGradient
       id="linearGradient6028"
       inkscape:collect="always">
      <stop
         id="stop6030"
         offset="0"
         style="stop-color:#ffffff;stop-opacity:1;" />
      <stop
         id="stop6032"
         offset="1"
         style="stop-color:#ffffff;stop-opacity:0;" />
    </linearGradient>
    <linearGradient
       id="linearGradient4236">
      <stop
         id="stop4238"
         offset="0.0000000"
         style="stop-color:#ffffff;stop-opacity:0.32673267;" />
      <stop
         id="stop4240"
         offset="1.0000000"
         style="stop-color:#ffffff;stop-opacity:0.60396039;" />
    </linearGradient>
    <linearGradient
       y2="14.2033"
       x2="35.3912"
       y1="32.4165"
       x1="12.2744"
       gradientUnits="userSpaceOnUse"
       id="aigrd2">
      <stop
         id="stop3043"
         style="stop-color:#FBFBFB"
         offset="0" />
      <stop
         id="stop3045"
         style="stop-color:#B6B6B6"
         offset="0.5" />
      <stop
         id="stop3047"
         style="stop-color:#E4E4E4"
         offset="1" />
    </linearGradient>
    <linearGradient
       y2="34.3075"
       x2="32.511"
       y1="11.1885"
       x1="14.9966"
       gradientUnits="userSpaceOnUse"
       id="aigrd1">
      <stop
         id="stop3034"
         style="stop-color:#EBEBEB"
         offset="0" />
      <stop
         id="stop3036"
         style="stop-color:#FFFFFF"
         offset="0.5" />
      <stop
         id="stop3038"
         style="stop-color:#EBEBEB"
         offset="1" />
    </linearGradient>
    <linearGradient
       gradientTransform="matrix(1.190476,0.000000,0.000000,1.190476,-4.224424,-2.500000)"
       y2="34.3075"
       x2="32.511"
       y1="11.1885"
       x1="14.9966"
       gradientUnits="userSpaceOnUse"
       id="linearGradient3912"
       xlink:href="#aigrd1"
       inkscape:collect="always" />
    <linearGradient
       gradientTransform="matrix(1.250000,0.000000,0.000000,1.250000,-5.652995,-2.604165)"
       gradientUnits="userSpaceOnUse"
       y2="28.000000"
       x2="29.000000"
       y1="14.625000"
       x1="21.125000"
       id="linearGradient4222"
       xlink:href="#linearGradient4236"
       inkscape:collect="always" />
    <linearGradient
       gradientTransform="matrix(1.250000,0.000000,0.000000,1.250000,-5.652995,-2.604165)"
       gradientUnits="userSpaceOnUse"
       y2="28.000000"
       x2="29.000000"
       y1="14.625000"
       x1="21.125000"
       id="linearGradient4224"
       xlink:href="#linearGradient4236"
       inkscape:collect="always" />
    <linearGradient
       y2="14.2033"
       x2="35.3912"
       y1="32.4165"
       x1="12.2744"
       gradientTransform="matrix(1.190476,0.000000,0.000000,1.190476,-4.224424,-2.500001)"
       gradientUnits="userSpaceOnUse"
       id="linearGradient4242"
       xlink:href="#aigrd2"
       inkscape:collect="always" />
    <linearGradient
       gradientUnits="userSpaceOnUse"
       y2="18.366575"
       x2="17.742729"
       y1="31.494707"
       x1="28.702885"
       id="linearGradient6034"
       xlink:href="#linearGradient6028"
       inkscape:collect="always" />
    <linearGradient
       gradientUnits="userSpaceOnUse"
       y2="54.698483"
       x2="48.798885"
       y1="3.6100161"
       x1="10.501720"
       id="linearGradient6042"
       xlink:href="#linearGradient6036"
       inkscape:collect="always" />
    <radialGradient
       inkscape:collect="always"
       xlink:href="#linearGradient3394"
       id="radialGradient3392"
       cx="37.751469"
       cy="27.569166"
       fx="37.751469"
       fy="27.569166"
       r="21.333334"
       gradientUnits="userSpaceOnUse"
       gradientTransform="matrix(0.848684,0.958020,-0.782119,0.692834,18.69147,-20.52578)" />
    <radialGradient
       inkscape:collect="always"
       xlink:href="#linearGradient3421"
       id="radialGradient3429"
       gradientUnits="userSpaceOnUse"
       gradientTransform="matrix(0.158450,-0.158988,0.432907,0.431441,-2.723645,15.00107)"
       cx="53.556889"
       cy="48.238270"
       fx="53.556889"
       fy="48.238270"
       r="21.333334" />
    <radialGradient
       inkscape:collect="always"
       xlink:href="#linearGradient3435"
       id="radialGradient3433"
       gradientUnits="userSpaceOnUse"
       gradientTransform="matrix(5.184267e-3,-0.122860,0.544548,2.297824e-2,0.957234,26.30756)"
       cx="16.885271"
       cy="33.377594"
       fx="16.885271"
       fy="33.377594"
       r="21.333334" />
    <radialGradient
       inkscape:collect="always"
       xlink:href="#linearGradient3435"
       id="radialGradient3443"
       gradientUnits="userSpaceOnUse"
       gradientTransform="matrix(0.105916,-1.914240e-2,0.104789,0.579807,17.13693,7.115158)"
       cx="35.511295"
       cy="21.618015"
       fx="35.511295"
       fy="21.618015"
       r="21.333334" />
    <radialGradient
       inkscape:collect="always"
       xlink:href="#linearGradient3435"
       id="radialGradient3447"
       gradientUnits="userSpaceOnUse"
       cx="133.84108"
       cy="23.914305"
       fx="133.84108"
       fy="23.914305"
       r="21.333334"
       gradientTransform="matrix(-5.048220e-2,1.387847e-2,-0.128440,-0.467196,35.41257,39.44172)" />
    <radialGradient
       inkscape:collect="always"
       xlink:href="#linearGradient3406"
       id="radialGradient3449"
       gradientUnits="userSpaceOnUse"
       gradientTransform="matrix(0.769501,-1.242500,0.670300,0.415141,-21.77857,41.36563)"
       cx="26.137741"
       cy="38.807304"
       fx="26.137741"
       fy="38.807304"
       r="21.333334" />
    <linearGradient
       y2="34.3075"
       x2="32.511"
       y1="11.1885"
       x1="14.9966"
       gradientTransform="matrix(1.190476,0,0,1.190476,-4.224424,-2.5)"
       gradientUnits="userSpaceOnUse"
       id="linearGradient23343"
       xlink:href="#aigrd1"
       inkscape:collect="always" />
    <linearGradient
       y2="14.2033"
       x2="35.3912"
       y1="32.4165"
       x1="12.2744"
       gradientTransform="matrix(1.190476,0,0,1.190476,-4.224424,-2.500001)"
       gradientUnits="userSpaceOnUse"
       id="linearGradient23345"
       xlink:href="#aigrd2"
       inkscape:collect="always" />
    <linearGradient
       y2="28.000000"
       x2="29.000000"
       y1="14.625000"
       x1="21.125000"
       gradientTransform="matrix(1.25,0,0,1.25,-5.652995,-2.604165)"
       gradientUnits="userSpaceOnUse"
       id="linearGradient23347"
       xlink:href="#linearGradient4236"
       inkscape:collect="always" />
    <linearGradient
       y2="28.000000"
       x2="29.000000"
       y1="14.625000"
       x1="21.125000"
       gradientTransform="matrix(1.25,0,0,1.25,-5.652995,-2.604165)"
       gradientUnits="userSpaceOnUse"
       id="linearGradient23349"
       xlink:href="#linearGradient4236"
       inkscape:collect="always" />
    <linearGradient
       y2="54.698483"
       x2="48.798885"
       y1="3.6100161"
       x1="10.501720"
       gradientUnits="userSpaceOnUse"
       id="linearGradient23351"
       xlink:href="#linearGradient6036"
       inkscape:collect="always" />
    <linearGradient
       y2="18.366575"
       x2="17.742729"
       y1="31.494707"
       x1="28.702885"
       gradientUnits="userSpaceOnUse"
       id="linearGradient23353"
       xlink:href="#linearGradient6028"
       inkscape:collect="always" />
    <radialGradient
       r="21.333334"
       fy="27.569166"
       fx="37.751469"
       cy="27.569166"
       cx="37.751469"
       gradientTransform="matrix(0.848684,0.95802,-0.782119,0.692834,18.69147,-20.52578)"
       gradientUnits="userSpaceOnUse"
       id="radialGradient23355"
       xlink:href="#linearGradient3394"
       inkscape:collect="always" />
    <radialGradient
       r="21.333334"
       fy="38.807304"
       fx="26.137741"
       cy="38.807304"
       cx="26.137741"
       gradientTransform="matrix(0.769501,-1.2425,0.6703,0.415141,-21.77857,41.36563)"
       gradientUnits="userSpaceOnUse"
       id="radialGradient23357"
       xlink:href="#linearGradient3406"
       inkscape:collect="always" />
    <radialGradient
       r="21.333334"
       fy="48.238270"
       fx="53.556889"
       cy="48.238270"
       cx="53.556889"
       gradientTransform="matrix(0.15845,-0.158988,0.432907,0.431441,-2.723645,15.00107)"
       gradientUnits="userSpaceOnUse"
       id="radialGradient23359"
       xlink:href="#linearGradient3421"
       inkscape:collect="always" />
    <radialGradient
       r="21.333334"
       fy="33.377594"
       fx="16.885271"
       cy="33.377594"
       cx="16.885271"
       gradientTransform="matrix(5.184267e-3,-0.12286,0.544548,2.297824e-2,0.957234,26.30756)"
       gradientUnits="userSpaceOnUse"
       id="radialGradient23361"
       xlink:href="#linearGradient3435"
       inkscape:collect="always" />
    <radialGradient
       r="21.333334"
       fy="21.618015"
       fx="35.511295"
       cy="21.618015"
       cx="35.511295"
       gradientTransform="matrix(0.105916,-1.91424e-2,0.104789,0.579807,17.13693,7.115158)"
       gradientUnits="userSpaceOnUse"
       id="radialGradient23363"
       xlink:href="#linearGradient3435"
       inkscape:collect="always" />
    <radialGradient
       r="21.333334"
       fy="23.914305"
       fx="133.84108"
       cy="23.914305"
       cx="133.84108"
       gradientTransform="matrix(-5.04822e-2,1.387847e-2,-0.12844,-0.467196,35.41257,39.44172)"
       gradientUnits="userSpaceOnUse"
       id="radialGradient23365"
       xlink:href="#linearGradient3435"
       inkscape:collect="always" />
    <radialGradient
       r="21.333334"
       fy="23.914305"
       fx="133.84108"
       cy="23.914305"
       cx="133.84108"
       gradientTransform="matrix(-5.04822e-2,1.387847e-2,-0.12844,-0.467196,35.41257,39.44172)"
       gradientUnits="userSpaceOnUse"
       id="radialGradient23368"
       xlink:href="#linearGradient3435"
       inkscape:collect="always" />
    <radialGradient
       r="21.333334"
       fy="21.618015"
       fx="35.511295"
       cy="21.618015"
       cx="35.511295"
       gradientTransform="matrix(0.105916,-1.91424e-2,0.104789,0.579807,17.13693,7.115158)"
       gradientUnits="userSpaceOnUse"
       id="radialGradient23371"
       xlink:href="#linearGradient3435"
       inkscape:collect="always" />
    <radialGradient
       r="21.333334"
       fy="33.377594"
       fx="16.885271"
       cy="33.377594"
       cx="16.885271"
       gradientTransform="matrix(5.184267e-3,-0.12286,0.544548,2.297824e-2,0.957234,26.30756)"
       gradientUnits="userSpaceOnUse"
       id="radialGradient23374"
       xlink:href="#linearGradient3435"
       inkscape:collect="always" />
    <radialGradient
       r="21.333334"
       fy="48.238270"
       fx="53.556889"
       cy="48.238270"
       cx="53.556889"
       gradientTransform="matrix(0.15845,-0.158988,0.432907,0.431441,-2.723645,15.00107)"
       gradientUnits="userSpaceOnUse"
       id="radialGradient23377"
       xlink:href="#linearGradient3421"
       inkscape:collect="always" />
    <radialGradient
       r="21.333334"
       fy="38.807304"
       fx="26.137741"
       cy="38.807304"
       cx="26.137741"
       gradientTransform="matrix(0.769501,-1.2425,0.6703,0.415141,-21.77857,41.36563)"
       gradientUnits="userSpaceOnUse"
       id="radialGradient23380"
       xlink:href="#linearGradient3406"
       inkscape:collect="always" />
    <radialGradient
       r="21.333334"
       fy="27.569166"
       fx="37.751469"
       cy="27.569166"
       cx="37.751469"
       gradientTransform="matrix(0.848684,0.95802,-0.782119,0.692834,18.69147,-20.52578)"
       gradientUnits="userSpaceOnUse"
       id="radialGradient23383"
       xlink:href="#linearGradient3394"
       inkscape:collect="always" />
    <linearGradient
       y2="54.698483"
       x2="48.798885"
       y1="3.6100161"
       x1="10.501720"
       gradientUnits="userSpaceOnUse"
       id="linearGradient23387"
       xlink:href="#linearGradient6036"
       inkscape:collect="always" />
    <linearGradient
       y2="28.000000"
       x2="29.000000"
       y1="14.625000"
       x1="21.125000"
       gradientTransform="matrix(1.25,0,0,1.25,-5.652995,-2.604165)"
       gradientUnits="userSpaceOnUse"
       id="linearGradient23390"
       xlink:href="#linearGradient4236"
       inkscape:collect="always" />
    <linearGradient
       y2="28.000000"
       x2="29.000000"
       y1="14.625000"
       x1="21.125000"
       gradientTransform="matrix(1.25,0,0,1.25,-5.652995,-2.604165)"
       gradientUnits="userSpaceOnUse"
       id="linearGradient23393"
       xlink:href="#linearGradient4236"
       inkscape:collect="always" />
    <linearGradient
       y2="14.2033"
       x2="35.3912"
       y1="32.4165"
       x1="12.2744"
       gradientTransform="matrix(1.190476,0,0,1.190476,-4.224424,-2.500001)"
       gradientUnits="userSpaceOnUse"
       id="linearGradient23397"
       xlink:href="#aigrd2"
       inkscape:collect="always" />
    <linearGradient
       y2="34.3075"
       x2="32.511"
       y1="11.1885"
       x1="14.9966"
       gradientTransform="matrix(1.190476,0,0,1.190476,-4.224424,-2.5)"
       gradientUnits="userSpaceOnUse"
       id="linearGradient23400"
       xlink:href="#aigrd1"
       inkscape:collect="always" />
    <linearGradient
       gradientTransform="matrix(0.88155,0,0,0.88155,-38.263,576.65)"
       inkscape:collect="always"
       x1="145.94"
       y1="384.01999"
       x2="156.45"
       gradientUnits="userSpaceOnUse"
       xlink:href="#linearGradient3823"
       y2="404.98001"
       id="linearGradient4125" />
    <linearGradient
       id="linearGradient3823">
      <stop
         offset="0"
         style="stop-color:#ffffff"
         id="stop3825" />
      <stop
         offset="1"
         style="stop-color:#040000"
         id="stop3827" />
    </linearGradient>
    <radialGradient
       inkscape:collect="always"
       r="8.2096996"
       gradientTransform="matrix(0.47567556,0.11799547,-0.14348108,0.57838495,68.695461,699.00914)"
       cx="102.93"
       cy="452.92001"
       gradientUnits="userSpaceOnUse"
       xlink:href="#linearGradient3823"
       id="radialGradient4127" />
    <radialGradient
       inkscape:collect="always"
       r="16.754999"
       gradientTransform="matrix(-0.46294598,0.75020787,-0.85495364,-0.52758123,469.28941,1229.9755)"
       cx="53.633999"
       cy="497.31"
       gradientUnits="userSpaceOnUse"
       xlink:href="#linearGradient3823"
       id="radialGradient4129" />
    <radialGradient
       inkscape:collect="always"
       r="3.1507001"
       gradientTransform="matrix(0.87470917,-0.10961193,0.09992369,0.79744131,-82.50535,621.76685)"
       cx="63.551998"
       cy="447.10001"
       gradientUnits="userSpaceOnUse"
       xlink:href="#linearGradient3823"
       id="radialGradient4131" />
  </defs>
  <sodipodi:namedview
     inkscape:window-maximized="1"
     inkscape:snap-text-baseline="false"
     inkscape:document-rotation="0"
     inkscape:showpageshadow="false"
     inkscape:window-y="27"
     inkscape:window-x="1600"
     inkscape:window-height="1016"
     inkscape:window-width="1920"
     inkscape:document-units="px"
     inkscape:grid-bbox="true"
     showgrid="false"
     inkscape:current-layer="layer1"
     inkscape:cy="45.489546"
     inkscape:cx="25.033336"
     inkscape:zoom="5.6568542"
     inkscape:pageshadow="2"
     inkscape:pageopacity="0.0"
     borderopacity="0.25490196"
     bordercolor="#666666"
     pagecolor="#ffffff"
     id="base" />
  <metadata
     id="metadata4">
    <rdf:RDF>
      <cc:Work
         rdf:about="">
        <dc:format>image/svg+xml</dc:format>
        <dc:type
           rdf:resource="http://purl.org/dc/dcmitype/StillImage" />
        <dc:title />
        <dc:creator>
          <cc:Agent>
            <dc:title>Jakub Steiner</dc:title>
          </cc:Agent>
        </dc:creator>
        <dc:source>http://jimmac.musichall.cz</dc:source>
        <dc:subject>
          <rdf:Bag>
            <rdf:li>cdrom</rdf:li>
            <rdf:li>media</rdf:li>
            <rdf:li>removable</rdf:li>
            <rdf:li>cd</rdf:li>
            <rdf:li>audio</rdf:li>
          </rdf:Bag>
        </dc:subject>
        <cc:license
           rdf:resource="http://creativecommons.org/licenses/publicdomain/" />
      </cc:Work>
      <cc:License
         rdf:about="http://creativecommons.org/licenses/publicdomain/">
        <cc:permits
           rdf:resource="http://creativecommons.org/ns#Reproduction" />
        <cc:permits
           rdf:resource="http://creativecommons.org/ns#Distribution" />
        <cc:permits
           rdf:resource="http://creativecommons.org/ns#DerivativeWorks" />
      </cc:License>
    </rdf:RDF>
  </metadata>
  <g
     inkscape:groupmode="layer"
     inkscape:label="Layer 1"
     id="layer1">
    <path
       inkscape:connector-curvature="0"
       style="fill:url(#linearGradient23400);fill-rule:nonzero;stroke:none;stroke-miterlimit:4"
       d="M 24.347006,4.1666669 C 12.799386,4.1666669 3.5136719,13.452381 3.5136719,25 c 0,11.54762 9.2857141,20.833335 20.8333341,20.833335 11.54762,0 20.833335,-9.285715 20.833335,-20.833335 0,-11.547619 -9.285715,-20.8333331 -20.833335,-20.8333331 z m 0,25.8333341 c -2.738095,0 -5,-2.261905 -5,-5.000001 0,-2.738095 2.261905,-5 5,-5 2.738095,0 5,2.261905 5,5 0,2.738096 -2.261905,5.000001 -5,5.000001 z"
       id="path3040"
       inkscape:r_cx="true"
       inkscape:r_cy="true" />
    <path
       inkscape:connector-curvature="0"
       style="fill:url(#linearGradient23397);fill-rule:nonzero;stroke:#808080;stroke-miterlimit:4;stroke-opacity:1"
       d="M 24.347006,4.1666665 C 12.799386,4.1666665 3.513672,13.452381 3.513672,25 c 0,11.54762 9.285714,20.833335 20.833334,20.833335 11.54762,0 20.833335,-9.285715 20.833335,-20.833335 0,-11.547619 -9.285715,-20.8333335 -20.833335,-20.8333335 z m 0,25.8333345 c -2.738095,0 -5,-2.261905 -5,-5.000001 0,-2.738095 2.261905,-5 5,-5 2.738095,0 5,2.261905 5,5 0,2.738096 -2.261905,5.000001 -5,5.000001 z"
       id="path3049"
       inkscape:r_cx="true"
       inkscape:r_cy="true" />
    <path
       inkscape:connector-curvature="0"
       style="opacity:0.11;fill-rule:nonzero;stroke:none;stroke-miterlimit:4"
       d="M 24.347006,14.895835 C 18.70442,14.895835 14.24284,19.488638 14.24284,25 c 0,5.642588 4.592804,10.104166 10.104166,10.104166 5.642586,0 10.104166,-4.592802 10.104166,-10.104166 0,-5.642586 -4.592804,-10.104165 -10.104166,-10.104165 z m 0,15.615529 c -3.018127,0 -5.511362,-2.493235 -5.511362,-5.511364 0,-3.018127 2.493235,-5.511362 5.511362,-5.511362 3.018127,0 5.511362,2.493235 5.511362,5.511362 0,3.018129 -2.493235,5.511364 -5.511362,5.511364 z"
       id="path3051"
       inkscape:r_cx="true"
       inkscape:r_cy="true" />
    <path
       inkscape:connector-curvature="0"
       id="path3916"
       d="M 29.922111,5.6692337 26.325518,19.663896 c 1.124704,0.299517 2.024143,0.99547 2.635128,1.958542 l 12.39222,-7.549285 C 38.817618,9.9434382 34.748656,6.9050853 29.922111,5.6692337 Z"
       style="fill:url(#linearGradient23393);fill-opacity:1;fill-rule:nonzero;stroke:none;stroke-miterlimit:4;stroke-opacity:1"
       inkscape:r_cx="true"
       inkscape:r_cy="true" />
    <path
       inkscape:connector-curvature="0"
       style="fill:url(#linearGradient23390);fill-opacity:1;fill-rule:nonzero;stroke:none;stroke-miterlimit:4;stroke-opacity:1"
       d="M 17.307824,43.766057 22.043079,30.114558 C 20.946815,29.723566 20.107654,28.956005 19.577936,27.945951 L 6.6068752,34.450599 c 2.1870573,4.324212 5.9923798,7.686883 10.7009488,9.315458 z"
       id="path4214"
       inkscape:r_cx="true"
       inkscape:r_cy="true" />
    <path
       inkscape:connector-curvature="0"
       sodipodi:nodetypes="cccccc"
       id="path5264"
       d="m 24.347002,5.2023655 c -10.973544,0 -19.7976309,8.8240885 -19.7976309,19.7976315 0,10.973544 8.8240869,19.797631 19.7976309,19.797631 10.973544,0 19.797631,-8.824087 19.797631,-19.797631 0,-10.973543 -8.824087,-19.7976315 -19.797631,-19.7976315 z"
       style="opacity:0.546448;fill:none;fill-rule:nonzero;stroke:url(#linearGradient23387);stroke-miterlimit:4;stroke-opacity:1"
       inkscape:r_cx="true"
       inkscape:r_cy="true" />
    <circle
       r="6.0987959"
       cy="24.930641"
       cx="24.306795"
       transform="translate(0.08838835,0.08838865)"
       id="path6026"
       style="color:#000000;display:inline;overflow:visible;visibility:visible;opacity:0.672131;fill:none;fill-opacity:0.316384;fill-rule:nonzero;stroke:url(#linearGradient23353);stroke-width:0.930539;stroke-linecap:butt;stroke-linejoin:miter;stroke-miterlimit:4;stroke-dashoffset:0;stroke-opacity:1;marker:none;marker-start:none;marker-mid:none;marker-end:none"
       inkscape:r_cx="true"
       inkscape:r_cy="true" />
    <path
       inkscape:connector-curvature="0"
       id="path3390"
       d="M 24.347006,4.1666665 C 12.799386,4.1666665 3.513672,13.452381 3.513672,25 c 0,11.54762 9.285714,20.833335 20.833334,20.833335 11.54762,0 20.833335,-9.285715 20.833335,-20.833335 0,-11.547619 -9.285715,-20.8333335 -20.833335,-20.8333335 z m 0,25.8333345 c -2.738095,0 -5,-2.261905 -5,-5.000001 0,-2.738095 2.261905,-5 5,-5 2.738095,0 5,2.261905 5,5 0,2.738096 -2.261905,5.000001 -5,5.000001 z"
       style="opacity:0.114286;fill:url(#radialGradient23383);fill-opacity:1;fill-rule:nonzero;stroke:none;stroke-miterlimit:4;stroke-opacity:1"
       inkscape:r_cx="true"
       inkscape:r_cy="true" />
    <path
       inkscape:connector-curvature="0"
       style="opacity:0.0971428;fill:url(#radialGradient23380);fill-opacity:1;fill-rule:nonzero;stroke:none;stroke-miterlimit:4;stroke-opacity:1"
       d="M 24.347006,4.1666665 C 12.799386,4.1666665 3.513672,13.452381 3.513672,25 c 0,11.54762 9.285714,20.833335 20.833334,20.833335 11.54762,0 20.833335,-9.285715 20.833335,-20.833335 0,-11.547619 -9.285715,-20.8333335 -20.833335,-20.8333335 z m 0,25.8333345 c -2.738095,0 -5,-2.261905 -5,-5.000001 0,-2.738095 2.261905,-5 5,-5 2.738095,0 5,2.261905 5,5 0,2.738096 -2.261905,5.000001 -5,5.000001 z"
       id="path3404"
       inkscape:r_cx="true"
       inkscape:r_cy="true" />
    <path
       inkscape:connector-curvature="0"
       id="path3419"
       d="M 24.347006,4.1666665 C 12.799386,4.1666665 3.513672,13.452381 3.513672,25 c 0,11.54762 9.285714,20.833335 20.833334,20.833335 11.54762,0 20.833335,-9.285715 20.833335,-20.833335 0,-11.547619 -9.285715,-20.8333335 -20.833335,-20.8333335 z m 0,25.8333345 c -2.738095,0 -5,-2.261905 -5,-5.000001 0,-2.738095 2.261905,-5 5,-5 2.738095,0 5,2.261905 5,5 0,2.738096 -2.261905,5.000001 -5,5.000001 z"
       style="opacity:0.714286;fill:url(#radialGradient23377);fill-opacity:1;fill-rule:nonzero;stroke:none;stroke-miterlimit:4;stroke-opacity:1"
       inkscape:r_cx="true"
       inkscape:r_cy="true" />
    <path
       inkscape:connector-curvature="0"
       style="opacity:0.622857;fill:url(#radialGradient23374);fill-opacity:1;fill-rule:nonzero;stroke:none;stroke-miterlimit:4;stroke-opacity:1"
       d="M 24.347006,4.1666665 C 12.799386,4.1666665 3.513672,13.452381 3.513672,25 c 0,11.54762 9.285714,20.833335 20.833334,20.833335 11.54762,0 20.833335,-9.285715 20.833335,-20.833335 0,-11.547619 -9.285715,-20.8333335 -20.833335,-20.8333335 z m 0,25.8333345 c -2.738095,0 -5,-2.261905 -5,-5.000001 0,-2.738095 2.261905,-5 5,-5 2.738095,0 5,2.261905 5,5 0,2.738096 -2.261905,5.000001 -5,5.000001 z"
       id="path3431"
       inkscape:r_cx="true"
       inkscape:r_cy="true" />
    <path
       inkscape:connector-curvature="0"
       id="path3441"
       d="M 24.347006,4.1666665 C 12.799386,4.1666665 3.513672,13.452381 3.513672,25 c 0,11.54762 9.285714,20.833335 20.833334,20.833335 11.54762,0 20.833335,-9.285715 20.833335,-20.833335 0,-11.547619 -9.285715,-20.8333335 -20.833335,-20.8333335 z m 0,25.8333345 c -2.738095,0 -5,-2.261905 -5,-5.000001 0,-2.738095 2.261905,-5 5,-5 2.738095,0 5,2.261905 5,5 0,2.738096 -2.261905,5.000001 -5,5.000001 z"
       style="opacity:0.371429;fill:url(#radialGradient23371);fill-opacity:1;fill-rule:nonzero;stroke:none;stroke-miterlimit:4;stroke-opacity:1"
       inkscape:r_cx="true"
       inkscape:r_cy="true" />
    <path
       inkscape:connector-curvature="0"
       style="opacity:0.234286;fill:url(#radialGradient23368);fill-opacity:1;fill-rule:nonzero;stroke:none;stroke-miterlimit:4;stroke-opacity:1"
       d="M 24.347006,4.1666665 C 12.799386,4.1666665 3.513672,13.452381 3.513672,25 c 0,11.54762 9.285714,20.833335 20.833334,20.833335 11.54762,0 20.833335,-9.285715 20.833335,-20.833335 0,-11.547619 -9.285715,-20.8333335 -20.833335,-20.8333335 z m 0,25.8333345 c -2.738095,0 -5,-2.261905 -5,-5.000001 0,-2.738095 2.261905,-5 5,-5 2.738095,0 5,2.261905 5,5 0,2.738096 -2.261905,5.000001 -5,5.000001 z"
       id="path3445"
       inkscape:r_cx="true"
       inkscape:r_cy="true" />
  </g>
  <g
     inkscape:label="Layer 2"
     id="layer2"
     inkscape:groupmode="layer">
    <g
       transform="matrix(-0.20743882,0,0,0.20743882,40.747518,-167.11746)"
       id="g124">
      <path
         inkscape:connector-curvature="0"
         style="fill:#aaa7a7;stroke:#000000;stroke-width:1.56184;stroke-linecap:round;stroke-linejoin:round"
         sodipodi:nodetypes="ccccccccccccccccccc"
         d="m 127.34939,957.33039 c -5.12092,-3.13894 -64.705769,37.57959 -55.742169,27.5978 -3.587115,6.24799 -2.348185,10.88009 -17.300419,10.18279 14.851473,-2.70354 -4.414449,21.01882 -19.742312,22.74482 l 0.222627,-5.7434 c -1.519263,-4.7171 -3.221713,-5.9529 -5.037441,-5.0375 -6.71653,4.1526 -13.433059,1.5636 -20.1495887,-1.2593 l -0.00726,-6e-4 3.7780587,-10.07525 1.889074,-8.8155 -1.259383,-22.03875 -4.4077497,-0.62967 6.9264267,-5.66713 c 1.176252,-11.57035 6.010231,-27.52993 1.889073,-32.74342 l 6.296824,-3.14836 c -5.347923,0.34309 -4.072938,-9.61595 -4.40775,-17.07122 -0.217443,-0.50475 2.057185,-3.12606 10.704661,-2.44886 2.609653,0.69257 5.021926,0.79317 8.185809,3.14837 9.598317,-9.8143 18.919826,-19.72027 30.224824,-28.96509"
         id="path3007" />
      <path
         inkscape:connector-curvature="0"
         style="fill:#2f2c2c;stroke-width:0.88155"
         sodipodi:nodetypes="ccsccccccccccccccccccccccccccc"
         d="m 14.787797,994.79561 c 7.508338,-4.38236 14.631086,-1.76416 18.418225,5.1948 6.184954,-0.0294 9.631815,-2.50589 10.122838,-2.47592 3.063651,0.1863 5.039205,2.06538 3.572658,11.76341 -0.340208,1.0947 -2.443216,3.5116 -4.40775,5.8245 5.223184,-3.3403 8.700722,-1.9674 17.788797,-15.74186 1.099646,-6.62529 -3.729926,-3.36858 -5.981933,-4.40775 -1.920986,-3.08533 -2.215159,-6.46652 0.472255,-10.38995 6.650237,-5.17681 12.934101,-11.06874 16.056551,-23.14068 2.754932,-3.14917 5.356034,-5.06751 8.500699,-11.33409 4.546065,-4.47695 8.536754,-8.67613 9.75964,-11.49189 5.221244,2.07729 10.456946,4.65653 15.269323,-7.55612 2.16042,0.92643 5.56338,-0.63209 11.49189,-7.24131 10.72846,-3.32935 21.65351,-5.77592 33.21592,-5.35224 -8.80483,-3.91955 -24.67282,-13.25675 -34.31786,-6.13938 -1.39875,-8.50555 -11.7061,-2.61988 -17.945711,-3.30582 8.032861,-11.82334 -4.699895,-2.127 -8.185808,-2.04643 1.143194,-3.8983 5.205376,-10.79986 -6.139379,-5.50968 L 69.412695,877.36012 c -9.763166,5.86565 -20.588596,20.29441 -29.595392,28.80754 -4.831423,-3.10923 -6.11161,-2.07535 -8.658055,-2.51868 -4.619058,-0.20311 -9.97562,-1.45068 -9.75964,5.19489 -0.685203,5.40584 -0.727191,10.57772 3.148367,14.32519 l -5.824489,2.36132 c 4.432345,5.05516 1.047811,19.65239 -1.416739,33.21592 -2.881081,1.22386 -3.717055,3.57574 -6.611625,5.1948 1.440277,-0.047 3.262969,-0.85876 3.935504,0.62969 1.078224,6.0469 1.675121,11.55712 1.259382,22.35346 -1.146015,4.02534 -2.027036,7.57366 -1.101937,7.87101 z"
         id="path3821" />
      <path
         inkscape:connector-curvature="0"
         style="fill:url(#linearGradient4125);stroke:#000000;stroke-width:0.937088;stroke-linecap:round;stroke-linejoin:round"
         sodipodi:nodetypes="ccccc"
         d="m 75.721415,918.4093 c 8.629669,-6.97746 24.685165,-0.52611 17.14174,19.36854 3.925542,-0.0177 8.837535,-10.00207 8.014525,-15.36101 -4.009996,-8.21684 -1.117543,-9.0976 -13.580279,-12.46688 -8.355508,1.40122 -11.33497,6.49403 -11.576515,8.45971 z"
         id="path3779" />
      <path
         inkscape:connector-curvature="0"
         style="fill:#ffffff;stroke:#000000;stroke-width:0.624719;stroke-linecap:round;stroke-linejoin:round"
         sodipodi:nodetypes="cccccccccccc"
         d="m 131.15536,943.78739 c -7.5354,-0.0554 -13.78744,16.43915 -37.400641,30.05469 -12.297622,8.80271 -23.456282,14.3913 -21.665854,11.18775 -5.51436,14.66899 -13.975212,8.13247 -17.516399,9.73848 l 5.64e-4,8.5e-4 c -1.349476,-1.77729 -2.378157,-3.92889 -0.222626,-9.79578 6.634898,-4.73851 12.776304,-10.85805 16.474406,-23.82124 3.174638,-2.99286 6.231677,-6.16204 8.237115,-10.9083 3.37043,-3.32045 7.446012,-6.88658 10.267413,-11.85332 8.601636,2.76321 12.811562,-0.3323 14.888502,-7.05875 3.86947,-1.50534 7.62743,-2.46614 10.9083,-6.91259 10.94091,-5.27537 21.81329,-7.22077 33.94077,-5.97267"
         id="path3781" />
      <path
         inkscape:connector-curvature="0"
         style="fill:#ffffff;stroke-width:0.88155"
         sodipodi:nodetypes="cccccccccccccccccccccc"
         d="m 12.94095,997.66946 c 1.855222,-3.02398 3.710444,-4.23196 5.565666,-4.89771 0.47981,-2.63354 1.529225,-5.45697 3.784582,-8.68239 2.743825,-6.45806 4.526672,-13.87736 4.897716,-22.70784 -0.123558,-9.62477 2.283214,-19.01944 8.682386,-28.05092 2.516561,-8.79047 4.11675,-17.12235 15.806191,-30.49987 3.499313,-6.05687 5.379747,-5.63822 7.791845,-7.34666 0.564738,-3.84074 3.625903,-6.68286 7.123981,-9.3506 4.579388,-3.18249 6.47904,-5.99155 9.127569,-8.90542 20.840724,-17.5067 20.631796,-8.264 13.135095,10.24096 l -8.459706,16.25138 c -10.110497,8.90542 -18.479933,18.88192 -20.927116,32.50363 l -6.233528,18.47817 c -0.893363,7.04834 -3.711414,13.13421 -9.350601,17.80995 -1.099293,5.91318 -2.951958,11.80837 -9.572751,17.58781 -0.168729,3.1451 -0.320444,6.28078 -1.558404,10.01795 5.652939,1.1313 18.018882,-10.45608 13.580277,9.7958 -2.525817,6.2982 -7.094185,5.4473 -10.686149,8.0145 v -6.4561 c -2.045548,-4.6072 -3.665749,-5.3867 -5.120395,-4.6752 -5.528464,4.1651 -12.814211,2.6186 -20.7040831,-0.8905 z"
         id="path3783" />
      <path
         inkscape:connector-curvature="0"
         style="fill:url(#radialGradient4127);stroke:#7d7d7d;stroke-width:1.56184;stroke-linecap:round;stroke-linejoin:round"
         sodipodi:nodetypes="ccccccc"
         d="m 47.002279,976.29188 c -0.03032,-1.781 1.355736,-3.56199 2.448858,-5.34299 1.624256,-1.81485 2.318212,-5.83163 5.342986,-5.78826 6.638336,-0.3252 3.770213,4.88873 5.120395,6.6788 -1.633688,2.55967 -2.348273,5.5788 -7.346661,6.45612 l -3.784671,0.22263 c -2.598456,12.77278 -1.462227,3.23793 -1.780995,-2.22627 z"
         id="path3785" />
      <path
         inkscape:connector-curvature="0"
         style="fill:#ffffff;stroke-width:0.88155"
         sodipodi:nodetypes="cccccccccc"
         d="m 24.739615,923.53111 c -0.222626,-0.89054 4.229854,-7.12398 4.229854,-7.12398 -5.257036,0.51063 -3.19509,-4.46796 -4.229854,-7.12398 0.852107,-2.12137 2.118453,-2.17153 3.561991,-1.33573 0.781944,1.24158 0.849488,2.84044 0.445254,4.67513 l 3.11672,0.89054 c -0.319598,-1.63263 0.493721,-3.26518 1.335724,-4.89772 1.865536,-0.39658 2.868917,-2.86971 1.796864,-4.44134 -5.018488,-2.9129 -10.335293,0.34639 -13.742483,0.65669 0.0026,5.72073 -2.381772,15.08949 3.485648,18.70032 z"
         id="path3787" />
      <path
         inkscape:connector-curvature="0"
         style="fill:url(#radialGradient4129);stroke:#000000;stroke-width:1.56184;stroke-linecap:round;stroke-linejoin:round"
         sodipodi:nodetypes="cccccc"
         d="m 9.8237894,1006.1235 c -2.2763384,4.1445 -4.498197,10.04 0.6678706,12.4669 22.776608,9.258 17.160253,-2.0467 19.590686,-6.0108 -1.238137,7.2997 -0.237772,10.1228 4.452533,5.5655 2.186332,-10.3511 -0.7272,-9.7129 -2.448858,-11.1313 -12.864459,3.668 -16.735345,1.0855 -22.2626636,-0.8905 z"
         id="path3789" />
      <path
         inkscape:connector-curvature="0"
         style="fill:url(#radialGradient4131);stroke:#000000;stroke-width:0.624719;stroke-linecap:round;stroke-linejoin:round"
         sodipodi:nodetypes="ccc"
         d="m 16.361364,965.51052 c -0.809377,3.52126 -1.447417,7.15713 2.676122,9.44493 2.046342,-3.38974 -0.71894,-6.45577 -2.676122,-9.44493 z"
         id="path3819" />
    </g>
  </g>
</svg>
